<svg width="24" height="24" viewBox="0 0 24 24" fill="none" xmlns="http://www.w3.org/2000/svg">
<g clip-path="url(#clip0_6315_923)">
<path d="M12 0.00537109C5.37264 0.00537109 0 5.37801 0 12.0054C0 17.6329 3.87456 22.3551 9.10128 23.6521V15.6726H6.62688V12.0054H9.10128V10.4252C9.10128 6.34089 10.9498 4.44777 14.9597 4.44777C15.72 4.44777 17.0318 4.59705 17.5685 4.74585V8.06985C17.2853 8.04009 16.7933 8.02521 16.1822 8.02521C14.2147 8.02521 13.4544 8.77065 13.4544 10.7084V12.0054H17.3741L16.7006 15.6726H13.4544V23.9175C19.3963 23.1999 24.0005 18.1407 24.0005 12.0054C24 5.37801 18.6274 0.00537109 12 0.00537109Z" fill="#141219"/>
</g>
<defs>
<clipPath id="clip0_6315_923">
<rect width="24" height="24" fill="white" transform="translate(0 0.00537109)"/>
</clipPath>
</defs>
</svg>
