<svg width="24" height="24" viewBox="0 0 24 24" fill="none" xmlns="http://www.w3.org/2000/svg">
<g clip-path="url(#clip0_6315_925)">
<path d="M12 2.16631C15.2063 2.16631 15.5859 2.18037 16.8469 2.23662C18.0188 2.28818 18.6516 2.48506 19.0734 2.64912C19.6313 2.86475 20.0344 3.12725 20.4516 3.54443C20.8734 3.96631 21.1313 4.36475 21.3469 4.92256C21.5109 5.34443 21.7078 5.98193 21.7594 7.14912C21.8156 8.41475 21.8297 8.79443 21.8297 11.996C21.8297 15.2022 21.8156 15.5819 21.7594 16.8429C21.7078 18.0147 21.5109 18.6476 21.3469 19.0694C21.1313 19.6272 20.8687 20.0304 20.4516 20.4476C20.0297 20.8694 19.6313 21.1272 19.0734 21.3429C18.6516 21.5069 18.0141 21.7038 16.8469 21.7554C15.5813 21.8116 15.2016 21.8257 12 21.8257C8.79375 21.8257 8.41406 21.8116 7.15313 21.7554C5.98125 21.7038 5.34844 21.5069 4.92656 21.3429C4.36875 21.1272 3.96563 20.8647 3.54844 20.4476C3.12656 20.0257 2.86875 19.6272 2.65313 19.0694C2.48906 18.6476 2.29219 18.0101 2.24063 16.8429C2.18438 15.5772 2.17031 15.1976 2.17031 11.996C2.17031 8.78975 2.18438 8.41006 2.24063 7.14912C2.29219 5.97725 2.48906 5.34443 2.65313 4.92256C2.86875 4.36475 3.13125 3.96162 3.54844 3.54443C3.97031 3.12256 4.36875 2.86475 4.92656 2.64912C5.34844 2.48506 5.98594 2.28818 7.15313 2.23662C8.41406 2.18037 8.79375 2.16631 12 2.16631ZM12 0.00537109C8.74219 0.00537109 8.33438 0.0194336 7.05469 0.0756836C5.77969 0.131934 4.90313 0.338184 4.14375 0.633496C3.35156 0.942871 2.68125 1.35068 2.01563 2.021C1.34531 2.68662 0.9375 3.35693 0.628125 4.14443C0.332812 4.9085 0.126563 5.78037 0.0703125 7.05537C0.0140625 8.33975 0 8.74756 0 12.0054C0 15.2632 0.0140625 15.671 0.0703125 16.9507C0.126563 18.2257 0.332812 19.1022 0.628125 19.8616C0.9375 20.6538 1.34531 21.3241 2.01563 21.9897C2.68125 22.6554 3.35156 23.0679 4.13906 23.3726C4.90313 23.6679 5.775 23.8741 7.05 23.9304C8.32969 23.9866 8.7375 24.0007 11.9953 24.0007C15.2531 24.0007 15.6609 23.9866 16.9406 23.9304C18.2156 23.8741 19.0922 23.6679 19.8516 23.3726C20.6391 23.0679 21.3094 22.6554 21.975 21.9897C22.6406 21.3241 23.0531 20.6538 23.3578 19.8663C23.6531 19.1022 23.8594 18.2304 23.9156 16.9554C23.9719 15.6757 23.9859 15.2679 23.9859 12.0101C23.9859 8.75225 23.9719 8.34443 23.9156 7.06475C23.8594 5.78975 23.6531 4.91318 23.3578 4.15381C23.0625 3.35693 22.6547 2.68662 21.9844 2.021C21.3188 1.35537 20.6484 0.942871 19.8609 0.638184C19.0969 0.342871 18.225 0.136621 16.95 0.0803711C15.6656 0.0194336 15.2578 0.00537109 12 0.00537109Z" fill="#141219"/>
<path d="M12 5.84131C8.59688 5.84131 5.83594 8.60225 5.83594 12.0054C5.83594 15.4085 8.59688 18.1694 12 18.1694C15.4031 18.1694 18.1641 15.4085 18.1641 12.0054C18.1641 8.60225 15.4031 5.84131 12 5.84131ZM12 16.0038C9.79219 16.0038 8.00156 14.2132 8.00156 12.0054C8.00156 9.79756 9.79219 8.00693 12 8.00693C14.2078 8.00693 15.9984 9.79756 15.9984 12.0054C15.9984 14.2132 14.2078 16.0038 12 16.0038Z" fill="#141219"/>
<path d="M19.8469 5.59727C19.8469 6.39414 19.2 7.03633 18.4078 7.03633C17.6109 7.03633 16.9688 6.38946 16.9688 5.59727C16.9688 4.80039 17.6156 4.1582 18.4078 4.1582C19.2 4.1582 19.8469 4.80508 19.8469 5.59727Z" fill="#141219"/>
</g>
<defs>
<clipPath id="clip0_6315_925">
<rect width="24" height="24" fill="white" transform="translate(0 0.00537109)"/>
</clipPath>
</defs>
</svg>
