<svg width="24" height="24" viewBox="0 0 24 24" fill="none" xmlns="http://www.w3.org/2000/svg">
<g clip-path="url(#clip0_6315_926)">
<path d="M22.2234 0.00537109H1.77187C0.792187 0.00537109 0 0.778809 0 1.73506V22.271C0 23.2272 0.792187 24.0054 1.77187 24.0054H22.2234C23.2031 24.0054 24 23.2272 24 22.2757V1.73506C24 0.778809 23.2031 0.00537109 22.2234 0.00537109ZM7.12031 20.4569H3.55781V9.00068H7.12031V20.4569ZM5.33906 7.43975C4.19531 7.43975 3.27188 6.51631 3.27188 5.37725C3.27188 4.23818 4.19531 3.31475 5.33906 3.31475C6.47813 3.31475 7.40156 4.23818 7.40156 5.37725C7.40156 6.51162 6.47813 7.43975 5.33906 7.43975ZM20.4516 20.4569H16.8937V14.8882C16.8937 13.5616 16.8703 11.8507 15.0422 11.8507C13.1906 11.8507 12.9094 13.2991 12.9094 14.7944V20.4569H9.35625V9.00068H12.7687V10.5663H12.8156C13.2891 9.66631 14.4516 8.71475 16.1813 8.71475C19.7859 8.71475 20.4516 11.0866 20.4516 14.171V20.4569Z" fill="#141219"/>
</g>
<defs>
<clipPath id="clip0_6315_926">
<rect width="24" height="24" fill="white" transform="translate(0 0.00537109)"/>
</clipPath>
</defs>
</svg>
