<svg width="24" height="24" viewBox="0 0 24 24" fill="none" xmlns="http://www.w3.org/2000/svg">
<path d="M23.9132 17.4633C23.7478 17.0098 23.4291 16.7646 23.0675 16.5685C23.0001 16.5317 22.9388 16.495 22.8836 16.4705C22.7733 16.4153 22.663 16.3601 22.5527 16.305C21.425 15.7044 20.5425 14.9567 19.9358 14.0619C19.7642 13.8106 19.611 13.541 19.4884 13.2652C19.4332 13.1181 19.4394 13.0323 19.4761 12.9526C19.5129 12.8914 19.5619 12.8423 19.6232 12.7994C19.8193 12.6707 20.0155 12.542 20.1503 12.4562C20.3893 12.2969 20.5854 12.1743 20.708 12.0885C21.1676 11.7637 21.4924 11.4205 21.6947 11.0344C21.9827 10.4951 22.0195 9.86383 21.7989 9.29387C21.4924 8.4849 20.7325 7.98849 19.8071 7.98849C19.611 7.98849 19.421 8.00687 19.2249 8.04977C19.1758 8.06203 19.1207 8.07429 19.0716 8.08654C19.0778 7.53497 19.0655 6.95275 19.0165 6.37667C18.8449 4.36036 18.134 3.30624 17.3985 2.46663C16.9266 1.93957 16.3751 1.49218 15.7561 1.14285C14.6407 0.505479 13.3721 0.180664 11.9931 0.180664C10.6142 0.180664 9.35171 0.505479 8.2363 1.14285C7.61732 1.49218 7.06574 1.93957 6.59384 2.46663C5.85841 3.30624 5.15363 4.36649 4.9759 6.37667C4.92687 6.95275 4.91461 7.53497 4.92074 8.08654C4.87171 8.07429 4.82268 8.06203 4.76752 8.04977C4.57754 8.00687 4.38142 7.98849 4.19144 7.98849C3.26602 7.98849 2.50607 8.49103 2.19965 9.29387C1.97902 9.86383 2.01579 10.4951 2.30383 11.0344C2.50607 11.4205 2.83089 11.7637 3.29053 12.0885C3.41311 12.1743 3.60309 12.2969 3.84824 12.4562C3.97694 12.542 4.16692 12.6646 4.35691 12.7872C4.42432 12.8301 4.47948 12.8852 4.52238 12.9526C4.55915 13.0323 4.56528 13.1181 4.50399 13.2775C4.38142 13.5471 4.23434 13.8106 4.06274 14.0558C3.46826 14.926 2.61026 15.6676 1.51937 16.2621C0.943285 16.5685 0.342683 16.7708 0.085282 17.4633C-0.104704 17.9842 0.0178675 18.5726 0.502026 19.0751C0.679755 19.259 0.888127 19.4183 1.11489 19.5409C1.58679 19.7983 2.08933 20.0005 2.61639 20.1415C2.7267 20.1721 2.82476 20.215 2.91669 20.2763C3.09442 20.4295 3.0699 20.6624 3.30279 21.0056C3.41923 21.1833 3.57245 21.3366 3.74405 21.4591C4.24047 21.8023 4.79817 21.8207 5.38651 21.8452C5.9197 21.8636 6.5203 21.8881 7.21283 22.1149C7.50087 22.2068 7.79505 22.3907 8.13825 22.6052C8.96561 23.1138 10.0933 23.8064 11.987 23.8064C13.8807 23.8064 15.0145 23.1077 15.848 22.599C16.1912 22.3907 16.4854 22.2068 16.7612 22.1149C17.4476 21.8881 18.0543 21.8636 18.5875 21.8452C19.1758 21.8207 19.7335 21.8023 20.23 21.4591C20.4383 21.312 20.6099 21.1282 20.7325 20.9076C20.9041 20.6195 20.898 20.4173 21.0573 20.2763C21.1431 20.215 21.2412 20.1721 21.3392 20.1476C21.8663 20.0066 22.3811 19.8044 22.8591 19.5409C23.0981 19.4122 23.3188 19.2406 23.5026 19.0383L23.5087 19.0322C23.9868 18.5419 24.1032 17.9658 23.9132 17.4633ZM22.234 18.3642C21.2105 18.928 20.5241 18.8667 19.9971 19.2099C19.5436 19.498 19.8132 20.1231 19.4884 20.3498C19.0839 20.6256 17.895 20.3315 16.3628 20.8401C15.0942 21.2569 14.2914 22.4642 12.0115 22.4642C9.73168 22.4642 8.94722 21.263 7.66022 20.8401C6.12807 20.3315 4.93912 20.6318 4.53464 20.3498C4.20982 20.1231 4.47335 19.498 4.02596 19.2099C3.49278 18.8667 2.8125 18.928 1.78903 18.3642C1.13327 18.0026 1.50711 17.782 1.72162 17.6778C5.43554 15.8821 6.03001 13.1059 6.05453 12.8975C6.08517 12.6462 6.12194 12.4501 5.84616 12.1988C5.58263 11.9537 4.40594 11.2244 4.07499 10.9976C3.53568 10.6177 3.29666 10.2438 3.47439 9.77803C3.59696 9.45935 3.89726 9.33677 4.20982 9.33677C4.30788 9.33677 4.40594 9.34903 4.50399 9.36742C5.09847 9.49612 5.67456 9.79029 6.0055 9.87609C6.0484 9.88835 6.08517 9.89448 6.12807 9.89448C6.3058 9.89448 6.36709 9.80255 6.35483 9.6003C6.31806 8.95067 6.22613 7.68818 6.33031 6.50537C6.47127 4.88129 6.9922 4.07232 7.61732 3.3614C7.91762 3.0182 9.32106 1.53508 12.0115 1.53508C14.702 1.53508 16.1054 3.01207 16.4057 3.35527C17.0308 4.06619 17.5518 4.87516 17.6927 6.49924C17.7969 7.68206 17.705 8.94454 17.6621 9.59418C17.6498 9.80868 17.7111 9.88835 17.8888 9.88835C17.9317 9.88835 17.9685 9.88222 18.0114 9.86996C18.3423 9.79029 18.9184 9.48999 19.5129 9.36129C19.611 9.33678 19.709 9.33065 19.8071 9.33065C20.1196 9.33065 20.4199 9.45322 20.5425 9.7719C20.7202 10.2377 20.4812 10.6115 19.9419 10.9915C19.6171 11.2183 18.4404 11.9476 18.1707 12.1927C17.895 12.444 17.9317 12.6401 17.9624 12.8914C17.9869 13.0997 18.5814 15.876 22.2953 17.6717C22.5159 17.7758 22.8836 18.0026 22.234 18.3642Z" fill="#141219"/>
</svg>
