<svg width="24" height="25" viewBox="0 0 24 25" fill="none" xmlns="http://www.w3.org/2000/svg">
<path d="M0 24.7832L1.687 18.6202C0.646 16.8162 0.099 14.7712 0.1 12.6742C0.103 6.1182 5.438 0.783203 11.993 0.783203C15.174 0.784203 18.16 2.0232 20.406 4.2712C22.651 6.5192 23.887 9.5072 23.886 12.6852C23.883 19.2422 18.548 24.5772 11.993 24.5772C10.003 24.5762 8.042 24.0772 6.305 23.1292L0 24.7832ZM6.597 20.9762C8.273 21.9712 9.873 22.5672 11.989 22.5682C17.437 22.5682 21.875 18.1342 21.878 12.6832C21.88 7.2212 17.463 2.7932 11.997 2.7912C6.545 2.7912 2.11 7.2252 2.108 12.6752C2.107 14.9002 2.759 16.5662 3.854 18.3092L2.855 21.9572L6.597 20.9762ZM17.984 15.5122C17.91 15.3882 17.712 15.3142 17.414 15.1652C17.117 15.0162 15.656 14.2972 15.383 14.1982C15.111 14.0992 14.913 14.0492 14.714 14.3472C14.516 14.6442 13.946 15.3142 13.773 15.5122C13.6 15.7102 13.426 15.7352 13.129 15.5862C12.832 15.4372 11.874 15.1242 10.739 14.1112C9.856 13.3232 9.259 12.3502 9.086 12.0522C8.913 11.7552 9.068 11.5942 9.216 11.4462C9.35 11.3132 9.513 11.0992 9.662 10.9252C9.813 10.7532 9.862 10.6292 9.962 10.4302C10.061 10.2322 10.012 10.0582 9.937 9.9092C9.862 9.7612 9.268 8.2982 9.021 7.7032C8.779 7.1242 8.534 7.2022 8.352 7.1932L7.782 7.1832C7.584 7.1832 7.262 7.2572 6.99 7.5552C6.718 7.8532 5.95 8.5712 5.95 10.0342C5.95 11.4972 7.015 12.9102 7.163 13.1082C7.312 13.3062 9.258 16.3082 12.239 17.5952C12.948 17.9012 13.502 18.0842 13.933 18.2212C14.645 18.4472 15.293 18.4152 15.805 18.3392C16.376 18.2542 17.563 17.6202 17.811 16.9262C18.059 16.2312 18.059 15.6362 17.984 15.5122Z" fill="#141219"/>
</svg>
