<svg width="24" height="25" viewBox="0 0 24 25" fill="none" xmlns="http://www.w3.org/2000/svg">
<path d="M23.7609 7.98301C23.7609 7.98301 23.5266 6.32832 22.8047 5.60176C21.8906 4.64551 20.8688 4.64082 20.4 4.58457C17.0438 4.34082 12.0047 4.34082 12.0047 4.34082H11.9953C11.9953 4.34082 6.95625 4.34082 3.6 4.58457C3.13125 4.64082 2.10938 4.64551 1.19531 5.60176C0.473438 6.32832 0.24375 7.98301 0.24375 7.98301C0.24375 7.98301 0 9.92832 0 11.8689V13.6877C0 15.6283 0.239062 17.5736 0.239062 17.5736C0.239062 17.5736 0.473437 19.2283 1.19062 19.9549C2.10469 20.9111 3.30469 20.8783 3.83906 20.9814C5.76094 21.1643 12 21.2205 12 21.2205C12 21.2205 17.0438 21.2111 20.4 20.9721C20.8688 20.9158 21.8906 20.9111 22.8047 19.9549C23.5266 19.2283 23.7609 17.5736 23.7609 17.5736C23.7609 17.5736 24 15.633 24 13.6877V11.8689C24 9.92832 23.7609 7.98301 23.7609 7.98301ZM9.52031 15.8955V9.1502L16.0031 12.5346L9.52031 15.8955Z" fill="#141219"/>
</svg>
